<?xml version="1.0" encoding="UTF-8"?>
<svg id="Capa_1" data-name="Capa 1" xmlns="http://www.w3.org/2000/svg" viewBox="0 0 55 55">
  <defs>
    <style>
      .cls-1 {
        fill: #d9d9d9;
      }
    </style>
  </defs>
  <path class="cls-1" d="M4.89,28.44C.07,27.95-.18,22.81.35,18.95l3.98-8.16c.05-.39-.03-.23-.28-.27-1.39-.21-2.68-.18-2.9-1.96-.07-.61-.07-4.04.19-4.3.52-.53,2.42-.17,3.18-.27-.09-1.43.49-3.13,2.14-3.18h41.66c1.64.05,2.23,1.75,2.14,3.18.74.1,3.06-.32,3.33.5.17.5.07,4.12-.12,4.68-.43,1.29-1.67,1.2-2.75,1.36-.25.04-.33-.12-.28.27.84,2.43,3.9,6.59,4.11,8.96.34,3.75-.18,8.22-4.68,8.69v20.73c3.77-.46,4.22,1.92,3.55,5.04H1.35c-.67-3.13-.22-5.51,3.55-5.04v-20.73ZM48.59,3.98c.05-.72.07-1.47-.83-1.5l-40.87.05c-.62.18-.52.94-.5,1.46h42.2ZM52.14,5.84H2.84c.16.67-.42,2.64.47,2.8l48.66-.08c.38-.27.08-2.16.17-2.72ZM11.8,10.51h-5.42l-3.73,7.84h6.72l2.43-7.84ZM19.27,10.51h-5.6l-2.43,7.84h6.72l1.31-7.84ZM26.56,10.51h-5.6l-1.12,7.84h6.72v-7.84ZM34.03,10.51h-5.6v7.84h6.72l-1.12-7.84ZM41.31,10.51h-5.6l1.31,7.84h6.72l-2.43-7.84ZM48.59,10.51h-5.42l2.43,7.84h6.72l-3.73-7.84ZM9,20.22H2.09v3.83c0,.35.81,1.57,1.13,1.86,1.48,1.31,4.08,1.11,5.19-.58.11-.16.59-1.19.59-1.28v-3.83ZM17.78,20.22h-6.91v3.83c0,.35.81,1.57,1.13,1.86,1.48,1.31,4.08,1.11,5.19-.58.11-.16.59-1.19.59-1.28v-3.83ZM26.56,20.22h-6.91v3.83c0,.35.81,1.58,1.13,1.86,1.52,1.34,4.17,1.03,5.26-.7.09-.14.52-1.1.52-1.16v-3.83ZM35.33,20.22h-6.91v3.83c0,.06.43,1.02.52,1.16,1.06,1.68,3.62,2.04,5.15.77.34-.28,1.24-1.55,1.24-1.93v-3.83ZM44.11,20.22h-6.91v3.83c0,.06.43,1.02.52,1.16,1.1,1.76,3.7,2.07,5.26.7.32-.28,1.13-1.51,1.13-1.86v-3.83ZM52.89,20.22h-6.91v3.83c0,.08.48,1.11.59,1.28,1.11,1.69,3.7,1.89,5.19.58.32-.28,1.13-1.51,1.13-1.86v-3.83ZM6.76,28.44v20.73h26.33v-16.15c0-.72.98-1.81,1.71-2.02.95-.27,7.15-.29,8.27-.11.68.1,1.97,1.06,1.97,1.76v16.53h3.17v-20.73c-1.25-.31-2.32-1.05-3.1-2.05-.77.41-1.15,1.13-1.96,1.56-2.38,1.26-5.21.53-6.81-1.56-1.41,1.21-2.62,2.27-4.62,2.22-1.87-.05-2.97-1.11-4.3-2.21-1.72,2.06-4.38,2.85-6.82,1.55-.81-.43-1.19-1.15-1.96-1.56-1.6,2.09-4.44,2.82-6.81,1.56-.81-.43-1.19-1.15-1.96-1.56-.77,1-1.85,1.74-3.1,2.05ZM43.18,49.17v-16.15s-.26-.28-.28-.28h-7.66s-.28.26-.28.28v16.15h8.22ZM52.14,52.53c-.02-.65.26-1.54-.64-1.5H3.48c-.9-.04-.62.85-.64,1.5h49.3Z"/>
  <path class="cls-1" d="M11.56,30.9l16.21-.05c1.54.02,2.18,1.13,2.32,2.53.17,1.65.15,4.88,0,6.54-.11,1.27-.56,2.5-1.96,2.71-5.16-.38-11,.49-16.07,0-1.37-.13-1.99-.81-2.14-2.16-.19-1.66-.19-5.82,0-7.47.12-1.01.7-1.7,1.63-2.11ZM11.8,32.73v7.94s.26.28.28.28h15.69s.47-.43.47-.47v-7.47s-.26-.28-.28-.28H11.8Z"/>
</svg>