<?xml version="1.0" encoding="UTF-8"?>
<svg id="Capa_1" data-name="Capa 1" xmlns="http://www.w3.org/2000/svg" viewBox="0 0 55 55">
  <defs>
    <style>
      .cls-1 {
        fill: #d9d9d9;
      }
    </style>
  </defs>
  <path class="cls-1" d="M30.36,34.54c10.95-2.46,16.04-15.84,9.51-25-4.24,1.89-7.96-3.57-4.45-6.78,2.91-2.66,7.43-.03,6.76,3.92-.06.38-.6,1.17-.56,1.37.03.15.93,1.4,1.11,1.73,5.15,9.64,1.31,21.27-8.54,25.82.58.72.79.05,1.27-.21,2.01-1.1,4.99-.25,5.52,2.12,2.51-1.26,5.56.29,5.8,3.14.35,4.1-.28,8.69,0,12.85-.03,1.57-2.11,1.61-2.32.09l-.03-12.93c-.24-1.74-2.88-1.78-3.09,0-.13,1.07.38,4.24-.5,4.81-.66.43-1.71.09-1.84-.74-.26-1.68.41-5.39-.19-6.72s-2.79-1.02-3.01.57c-.26,1.8.33,4.57-.06,6.23-.26,1.08-2,.98-2.16-.08-.3-1.93.28-4.46-.09-6.45-.66-1.5-2.52-1.51-3.12.05l-.06,6.11c-.47,1.13-2.16.99-2.17-.31v-20.13c-.22-1.98-2.69-2.3-3.21-.37v24.45c.04,1.17-1.2,1.75-2.04.93l-3.77-5.99c-1.46-1.09-3.23.17-2.78,1.91l4.13,8.46c.23,1.32-1.41,1.8-2.12.76-1.37-2.03-2.21-5.05-3.58-7.16-2.28-3.32.62-7.7,4.57-6.42,1.74.57,2.2,2.22,3.23,3.5v-15.18s-.41-.07-.62-.18c-12.46-6.55-4.73-24.02,7.69-20.4,9.52,2.78,10.5,16.04,1.54,20.35-.23.11-.82.18-.82.22v5.68ZM37.99,3.95c-2.36.18-2.16,3.91.34,3.68s2.03-3.87-.34-3.68ZM30.36,26.51c4.05-2.1,5.97-6.93,4.09-11.19-2.15-4.89-8-6.71-12.55-3.87-5.58,3.48-5.29,12.08.68,14.94v-2.9c-.06-.93.46-.93.35-1.33-.05-.2-.8-1.13-.99-1.61-1.71-4.36,2.97-8.35,7.05-6.06,2.24,1.26,3.02,3.97,2.01,6.31-.17.4-.97,1.39-.99,1.48-.02.13.35.86.35,1.09v3.15ZM25.76,16.17c-1.8.37-2.59,3.15-1.14,4.39.69-.5,1.65-.55,2.47-.47.37.04,1.36.47,1.42.44.33-.16.58-1.01.61-1.37.2-2.08-1.31-3.41-3.36-3Z"/>
  <path class="cls-1" d="M15.22,7.05c-5.69,5.51-6.5,14.37-2.13,20.93,3.93-1.84,7.81,2.89,4.99,6.3-2.92,3.53-8.56.4-7.03-4.07.08-.23.4-.61.38-.75-.04-.22-.88-1.31-1.06-1.66C4.4,16.75,10.79,2.29,23.4.48c1.03-.15,3.24-.6,3.24.91,0,1.31-1.21,1.06-2,1.19-3.52.55-6.84,1.97-9.42,4.47ZM14.53,29.88c-2.82.58-1.08,5,1.38,3.36,1.78-1.19.5-3.74-1.38-3.36Z"/>
  <path class="cls-1" d="M29.41,2.53c-.93-1.05.66-2.58,1.64-1.57,1.1,1.13-.61,2.74-1.64,1.57Z"/>
</svg>