<?xml version="1.0" encoding="UTF-8"?>
<svg id="Capa_1" data-name="Capa 1" xmlns="http://www.w3.org/2000/svg" viewBox="0 0 55 55">
  <defs>
    <style>
      .cls-1 {
        fill: #d9d9d9;
      }
    </style>
  </defs>
  <path class="cls-1" d="M51.32.39H3.67C2.02.43,1,1.54.39,2.94v38.96c.56,1.26,1.41,2.32,2.88,2.52l14.9.13,8.27,9.57c.26.31.65.48,1.05.48h0c.4,0,.79-.17,1.05-.48l8.41-9.64,14.76-.06c1.59-.22,2.85-1.64,2.89-3.25V3.68c-.06-1.79-1.49-3.23-3.28-3.28ZM27.5,5.97c4.19,0,7.59,3.4,7.59,7.59s-3.4,7.59-7.59,7.59-7.59-3.4-7.59-7.59,3.4-7.59,7.59-7.59ZM27.5,39.72c-7.94,0-14.38-3.4-14.38-7.59s6.44-7.59,14.38-7.59,14.38,3.4,14.38,7.59-6.44,7.59-14.38,7.59Z"/>
</svg>