<?xml version="1.0" encoding="UTF-8"?>
<svg id="Capa_1" xmlns="http://www.w3.org/2000/svg" version="1.1" viewBox="0 0 23.89 23.89">
  <!-- Generator: Adobe Illustrator 29.8.6, SVG Export Plug-In . SVG Version: 2.1.1 Build 1)  -->
  <defs>
    <style>
      .st0 {
        fill: #fff;
      }
    </style>
  </defs>
  <g id="Icon">
    <path class="st0" d="M17.3,0H6.57C2.92,0,0,2.92,0,6.57v10.74c0,3.64,2.92,6.57,6.57,6.57h10.74c3.64,0,6.57-2.92,6.57-6.57V6.57C23.87,2.92,20.95,0,17.3,0h0ZM21.78,16.36c0,2.97-2.42,5.43-5.43,5.43H7.53c-2.97,0-5.43-2.42-5.43-5.43V7.53c0-2.97,2.42-5.43,5.43-5.43h8.87c2.97,0,5.43,2.42,5.43,5.43v8.83h-.06Z"/>
    <path class="st0" d="M16.29,7.64l-.06-.06-.06-.06c-1.14-1.14-2.66-1.76-4.24-1.76-3.38.02-6.11,2.79-6.1,6.17,0,1.63.66,3.19,1.8,4.35,1.14,1.16,2.68,1.8,4.3,1.8,3.4-.06,6.11-2.9,6.06-6.33-.04-1.52-.62-3.01-1.71-4.11h0ZM11.93,15.99c-2.24.04-4.06-1.76-4.09-4s1.76-4.06,4-4.09,4.06,1.76,4.09,4v.06c0,2.18-1.8,4-4,4.04h0Z"/>
    <path class="st0" d="M19.81,5.49c0,.81-.62,1.47-1.43,1.47-.39,0-.75-.15-1.01-.42-.57-.57-.57-1.52.04-2.09.28-.28.62-.42,1.01-.42.33,0,.66.13.92.33l.04.04c.06.04.09.09.13.13l.04.04c.15.26.28.59.28.94h0Z"/>
  </g>
</svg>