<?xml version="1.0" encoding="UTF-8"?>
<svg id="Capa_1" xmlns="http://www.w3.org/2000/svg" version="1.1" viewBox="0 0 27.11 25.08">
  <!-- Generator: Adobe Illustrator 29.8.6, SVG Export Plug-In . SVG Version: 2.1.1 Build 1)  -->
  <defs>
    <style>
      .st0 {
        fill: #fff;
      }
    </style>
  </defs>
  <path class="st0" d="M19.77,3.71c1.74,1.95,2.49,4.15,2.31,6.79,3.88,1.31,6.39,5.44,4.24,9.33-.51.93-1.29,1.61-2.06,2.32.13.86.54,1.72.56,2.59-.08.35-.48.42-.78.3l-2.24-1.7c-3.65.98-7.82-.04-9.91-3.34-.11-.18-.32-.74-.41-.82-.17-.15-.95-.05-1.24-.07-1.05-.09-2.08-.38-3.11-.57l-3.08,2.46c-.44.25-.93,0-.89-.52l.93-3.55C-.14,14.12-1.36,8.57,1.72,4.4,5.88-1.23,15.15-1.45,19.77,3.71ZM20.98,10.22c.44-4.44-3.23-7.97-7.34-8.86C8.74.29,2.66,2.49,1.32,7.71c-.91,3.57.69,6.19,3.35,8.36.21.18.36.1.49.46.16.46-.6,2.38-.5,2.49.17-.02.34-.19.47-.29.35-.27,1.5-1.34,1.83-1.38.39-.05,1.9.5,2.48.57.51.07,1.11.06,1.63.08-.88-5.44,5.08-8.99,9.9-7.79ZM23.38,23.11c-.05-.43-.46-1.11-.25-1.53.06-.12.68-.48.84-.62,4.59-4.01.89-9.61-4.4-9.87-3.6-.18-7.74,2.12-7.47,6.16.21,3.07,3.38,5.14,6.23,5.35,1.28.1,2.47-.15,3.71-.44l1.35.95Z"/>
  <circle class="st0" cx="8.04" cy="6.92" r="1.29"/>
  <circle class="st0" cx="14.25" cy="6.92" r="1.29"/>
  <circle class="st0" cx="16.4" cy="15" r="1.03"/>
  <circle class="st0" cx="21.39" cy="15" r="1.03"/>
</svg>