<?xml version="1.0" encoding="UTF-8"?>
<svg id="Capa_1" xmlns="http://www.w3.org/2000/svg" version="1.1" viewBox="0 0 23.89 23.89">
  <!-- Generator: Adobe Illustrator 29.8.6, SVG Export Plug-In . SVG Version: 2.1.1 Build 1)  -->
  <defs>
    <style>
      .st0 {
        fill: #fff;
      }
    </style>
  </defs>
  <path class="st0" d="M19.4,0H4.49C2.02,0,0,2.02,0,4.49v14.92c0,2.47,2.02,4.49,4.49,4.49h14.91c2.47,0,4.49-2.02,4.49-4.49V4.49c0-2.47-2.02-4.49-4.49-4.49ZM8.44,18.61h-2.88v-8.76h2.88v8.76ZM7,8.77c-.88,0-1.6-.71-1.6-1.59s.71-1.59,1.6-1.59,1.59.71,1.59,1.59-.71,1.59-1.59,1.59ZM18.49,13.98v4.63h-2.88v-4.63c0-1.61-.74-1.9-1.33-1.9s-1.35.29-1.42,1.39v5.14h-2.88v-8.76h2.88v1c.54-.68,1.32-1.2,2.43-1.2,3.08,0,3.21,2.8,3.21,2.8v1.54Z"/>
</svg>