<?xml version="1.0" encoding="UTF-8"?>
<svg id="Capa_1" xmlns="http://www.w3.org/2000/svg" version="1.1" viewBox="0 0 24.94 24.93">
  <!-- Generator: Adobe Illustrator 29.8.6, SVG Export Plug-In . SVG Version: 2.1.1 Build 1)  -->
  <defs>
    <style>
      .st0 {
        fill: #fff;
      }
    </style>
  </defs>
  <path class="st0" d="M19.06,1.88C17.08.65,14.8,0,12.46,0,5.58,0,0,5.58,0,12.47c0,2.38.68,4.72,1.97,6.72L.03,24.22c-.1.27.03.57.3.67.06.02.12.03.19.03.06,0,.12,0,.17-.03l5.19-1.85c5.84,3.64,13.53,1.85,17.17-3.99,3.64-5.84,1.85-13.53-3.99-17.17ZM18.69,16.1c-.26,1.51-1.58,2.61-3.12,2.6-1.63,0-4.76-1.95-6.08-3.27-1.32-1.32-3.27-4.45-3.27-6.08-.02-1.53,1.08-2.85,2.6-3.12h1.04c.2,0,.38.11.46.29,0,0,.63,1.27,1.04,2.07.46.9-.41,1.96-.9,2.46.3.78.75,1.48,1.32,2.08.6.58,1.31,1.03,2.08,1.32.5-.49,1.56-1.36,2.46-.9.8.42,2.07,1.04,2.07,1.04.18.09.29.27.29.47v1.04Z"/>
</svg>