<?xml version="1.0" encoding="UTF-8"?>
<svg id="Capa_1" data-name="Capa 1" xmlns="http://www.w3.org/2000/svg" viewBox="0 0 55 55">
  <defs>
    <style>
      .cls-1 {
        fill: #d9d9d9;
      }
    </style>
  </defs>
  <path class="cls-1" d="M17.78.23c21-1.86,30.72,24.37,14.03,36.35C16.64,47.49-3.88,33.34.64,15.26,2.57,7.5,9.7.95,17.78.23ZM19.41,4.72C6.89,5.4.19,19.75,7.91,29.74c7.22,9.35,22.19,7.25,26.59-3.7,4.18-10.41-3.86-21.93-15.09-21.32Z"/>
  <path class="cls-1" d="M37.7,33.37c1.44,1.33,2.7,2.93,4.27,4.09,1.09-.06,1.97.43,2.77,1.1,3.17,2.67,5.97,6.44,9.17,9.16,2.61,3.36.28,7.76-4.08,7.07-1.47-.23-2.82-2.06-3.83-3.02-1.69-1.61-7.55-6.84-8.2-8.63-.21-.56-.19-1.16-.39-1.73l-3.87-3.86c1.56-1.23,2.87-2.69,4.18-4.18h-.02Z"/>
</svg>