<?xml version="1.0" encoding="UTF-8"?>
<svg id="Capa_1" data-name="Capa 1" xmlns="http://www.w3.org/2000/svg" viewBox="0 0 55 55">
  <defs>
    <style>
      .cls-1 {
        fill: #d9d9d9;
      }
    </style>
  </defs>
  <path class="cls-1" d="M6.18.07c2.89-.31,5.47.42,7.29,2.76,2.15,2.77,2.08,6.54.03,9.35l3.51,3.53c5.62-5.15,14.75-5.15,20.37,0l3.51-3.53c-1.38-1.98-1.91-4.24-1.31-6.61,2.14-8.47,15.48-7.07,14.79,2.81-.41,5.82-7.64,8.65-12.15,5.13l-3.53,3.51c5.15,5.62,5.14,14.75,0,20.37l3.53,3.51c2.01-1.4,4.2-1.92,6.61-1.31,8.44,2.13,7.12,15.44-2.81,14.79-5.79-.38-8.68-7.67-5.13-12.15l-3.51-3.53c-5.62,5.14-14.75,5.15-20.37,0l-3.51,3.53c1.39,2,1.92,4.22,1.31,6.61C12.68,57.28-.62,55.96.03,46.03c.38-5.79,7.67-8.68,12.15-5.13l3.53-3.51c-1.12-1.23-2.05-2.7-2.69-4.23-2.25-5.42-1.26-11.79,2.69-16.15l-3.53-3.51c-3.5,2.63-8.7,1.83-11.06-1.9C-1.63,7.25.92.64,6.18.07ZM12.5,10.41C14.9,5.66,10.85.5,5.65,2.13,2.2,3.22.84,7.31,2.56,10.41c.87-1.39,2.23-2.48,3.89-2.72l-1.23-1.05c-1.11-1.51-.32-3.72,1.46-4.22,2.83-.8,4.77,2.41,2.85,4.57l-.97.7c1.27.18,2.43.9,3.27,1.85.24.27.4.66.68.86h-.01ZM51.65,10.29c.38.28.79-1.51.83-1.7.56-2.9-1.14-5.76-4.01-6.53-4.55-1.23-8.41,2.88-6.98,7.35l.53,1.01c.71-1.42,2.26-2.49,3.83-2.72l-.99-.68c-.92-1.15-1.07-2.51-.12-3.7,2.46-3.08,7.2,1.22,3.76,4.01-.2.16-.5.17-.56.37,1.21.17,2.32.85,3.15,1.73.18.19.52.83.56.86ZM7.29,4.13c-1.17.24-.78,2.21.56,1.8.99-.3.69-2.06-.56-1.8ZM46.68,4.13c-1.24.26-.78,2.21.56,1.81.93-.28.69-2.07-.56-1.81ZM11.15,12.01c-1.23-3.45-6.03-3.44-7.29,0,2.29,1.59,4.99,1.6,7.29,0ZM50.54,12.01c-1.26-3.44-6.05-3.45-7.29,0,2.29,1.6,4.99,1.59,7.29,0ZM26.43,13.66c-12.22.8-17.3,16-7.88,23.98,7.86,6.66,20.06,2.06,21.94-7.94,1.61-8.52-5.36-16.61-14.07-16.04h.01ZM8.55,47.08c1.64.21,2.92,1.32,3.89,2.59,1.8-2.89.32-6.96-2.87-8.12-5.1-1.85-9.61,3.43-7.01,8.12,1-1.26,2.22-2.39,3.89-2.59-.27-.32-.61-.42-.93-.74-1.25-1.23-1.04-3.07.32-4.13,2.67-2.06,6.05,1.67,3.64,4.13,0,0-.93.74-.93.74ZM47.94,47.08c1.67.2,2.89,1.33,3.89,2.59,2.56-4.64-1.82-9.9-6.92-8.15-3.24,1.11-4.78,5.23-2.96,8.15,1-1.29,2.19-2.4,3.89-2.59l-.93-.74c-1.3-1.22-.98-3.43.52-4.3,2.81-1.65,5.74,2.03,3.44,4.3-.32.32-.66.42-.93.74ZM8.27,43.78c-.97-1.04-2.48.75-1.27,1.46,1.03.61,1.88-.81,1.27-1.46ZM46.12,43.78c-.61.65.24,2.07,1.27,1.46,1.21-.71-.3-2.49-1.27-1.46ZM11.14,51.39c-1.21-3.46-6.04-3.45-7.28,0,.54.14.89.53,1.42.75,2.03.83,4.08.42,5.86-.75ZM50.54,51.4c-1.26-3.46-5.96-3.46-7.29-.07,1.71,1.27,3.89,1.63,5.88.81.53-.22.87-.61,1.42-.75h0Z"/>
  <path class="cls-1" d="M25.61,12.17c5.52-.43,10.63,1.72,13.87,6.21,5.97,8.28,2.02,20.09-7.63,23.18-11.62,3.72-22.65-7.25-19.06-18.89,1.69-5.47,7.04-10.05,12.81-10.5h.01ZM26.37,14.06c-2.17.67-3.43,2.78-4.26,4.76,1.38.41,2.81.75,4.26.75v-5.52h0ZM28.13,14.06v5.52c1.43-.05,2.83-.38,4.18-.84-.59-1.54-1.59-3.22-2.98-4.16-.17-.12-1.06-.65-1.2-.52ZM22.36,14.82c-.16-.13-3.27,1.64-3.51,2.09l1.75,1.09c.37-1.16,1.09-2.17,1.76-3.17h0ZM32.06,14.82l1.88,3.17,1.63-1.13c-1.04-.87-2.23-1.58-3.51-2.05h0ZM18.85,26.35c-.03-2.25.47-4.48,1.08-6.63-.6-.4-1.24-.75-1.82-1.19-.4-.3-.35-.67-.8-.2-1.97,2.05-3.23,5.19-3.38,8.02h4.93-.01ZM40.5,26.35c-.12-3.1-1.5-6-3.55-8.27l-2.3,1.55c-.06.04-.08.1-.08.17-.02.28.38,1.32.47,1.71.22,1,.46,2.29.54,3.31.02.24-.08,1.55.13,1.55h4.8v-.02ZM26.37,21.33c-1.67.04-3.26-.46-4.85-.89-.62,1.9-.86,3.9-.92,5.9h5.64s.13-.12.13-.13v-4.89h0ZM33.81,26.35c0-2.01-.37-4-.92-5.93-1.53.53-3.13.92-4.76.92v5.01h5.68ZM18.85,28.1h-4.93c.16,1.46.43,2.79.99,4.15.61,1.49,1.52,2.88,2.65,4.02l2.21-1.53c.23-.27-.21-1.25-.29-1.63-.37-1.64-.66-3.33-.63-5.01ZM26.37,28.1h-5.77c.04,1.99.42,3.94.92,5.85,1.56-.53,3.19-.93,4.85-.92v-4.93ZM33.81,28.1h-5.68v4.93c1.67-.02,3.26.47,4.85.92.43-1.92.88-3.86.84-5.85h0ZM40.5,28.1h-4.93c.06,2.24-.48,4.45-1.08,6.59.87.41,1.61,1.01,2.38,1.58,2.13-2.15,3.48-5.13,3.63-8.17ZM26.37,34.79c-1.47.03-2.88.39-4.26.84.82,1.89,2.09,4.21,4.26,4.68v-5.52ZM28.13,34.79v5.52c2.14-.55,3.4-2.81,4.18-4.72-1.33-.5-2.76-.76-4.18-.8ZM20.61,36.38c-.11-.08-1.54.97-1.75,1.13,1.05.85,2.23,1.58,3.51,2.05-.66-1.01-1.39-2.01-1.76-3.17h0ZM35.57,37.46c-.29-.1-1.51-1.17-1.75-1-.41,1.12-1.08,2.12-1.76,3.09,1.28-.47,2.52-1.14,3.51-2.09Z"/>
</svg>