<?xml version="1.0" encoding="UTF-8"?>
<svg id="Capa_1" data-name="Capa 1" xmlns="http://www.w3.org/2000/svg" viewBox="0 0 55 55">
  <defs>
    <style>
      .cls-1 {
        fill: #d9d9d9;
      }

      .cls-2 {
        fill: #fff;
      }
    </style>
  </defs>
  <path class="cls-1" d="M43.19,9.02H2.78c-1.4.03-2.26.97-2.78,2.16v33.04c.48,1.07,1.19,1.97,2.44,2.14l12.64.11,7.01,8.12c.22.26.55.41.89.41h0c.34,0,.67-.15.89-.4l7.14-8.18,12.52-.05c1.35-.18,2.42-1.39,2.45-2.76V11.81c-.05-1.52-1.26-2.74-2.78-2.78h-.01ZM22.99,13.75c3.56,0,6.44,2.88,6.44,6.44s-2.88,6.44-6.44,6.44-6.44-2.88-6.44-6.44,2.88-6.44,6.44-6.44ZM22.99,42.37c-6.73,0-12.19-2.88-12.19-6.44s5.46-6.44,12.19-6.44,12.19,2.88,12.19,6.44-5.46,6.44-12.19,6.44Z"/>
  <g>
    <circle class="cls-2" cx="44.12" cy="10.88" r="10.88"/>
    <path class="cls-1" d="M43.12,1.5c3.45-.27,6.64,1.07,8.66,3.88,3.73,5.17,1.26,12.54-4.76,14.47-7.26,2.32-14.14-4.53-11.9-11.79,1.06-3.42,4.39-6.27,8-6.56ZM43.6,2.68c-1.35.42-2.14,1.74-2.66,2.97.86.26,1.75.47,2.66.47,0,0,0-3.44,0-3.44ZM44.69,2.68v3.44c.9-.03,1.77-.24,2.61-.52-.37-.96-.99-2.01-1.86-2.6-.11-.07-.66-.41-.75-.32ZM41.09,3.15c-.1-.08-2.04,1.02-2.19,1.3l1.09.68c.23-.73.68-1.35,1.1-1.98ZM47.15,3.15l1.17,1.98,1.02-.7c-.65-.54-1.39-.99-2.19-1.28ZM38.9,10.35c-.02-1.41.29-2.8.67-4.14-.38-.25-.78-.47-1.14-.74-.25-.19-.22-.42-.5-.13-1.23,1.28-2.01,3.24-2.11,5.01h3.08ZM52.42,10.35c-.08-1.94-.93-3.75-2.22-5.17l-1.43.96s-.05.06-.05.1c0,.17.24.82.29,1.07.13.63.29,1.43.34,2.06,0,.15-.05.96.08.96h3v.02ZM43.6,7.22c-1.05.02-2.04-.29-3.03-.55-.38,1.19-.54,2.44-.57,3.68h3.52s.08-.07.08-.08c0,0,0-3.05,0-3.05ZM48.24,10.35c0-1.26-.23-2.5-.57-3.7-.96.33-1.95.57-2.97.57v3.13h3.55,0ZM38.9,11.44h-3.08c.1.91.27,1.74.62,2.59.38.93.95,1.8,1.65,2.51l1.38-.96c.14-.17-.13-.78-.18-1.02-.23-1.03-.41-2.08-.39-3.13h0ZM43.6,11.44h-3.6c.02,1.24.26,2.46.57,3.65.97-.33,1.99-.58,3.03-.57v-3.08ZM48.24,11.44h-3.55v3.08c1.04-.01,2.04.29,3.03.57.27-1.2.55-2.41.52-3.65ZM52.42,11.44h-3.08c.04,1.4-.3,2.78-.67,4.12.54.25,1.01.63,1.48.98,1.33-1.34,2.17-3.2,2.27-5.1ZM43.6,15.62c-.92.02-1.8.24-2.66.52.51,1.18,1.31,2.63,2.66,2.92,0,0,0-3.44,0-3.44ZM44.69,15.62v3.44c1.33-.35,2.12-1.75,2.61-2.95-.83-.31-1.72-.47-2.61-.5h0ZM40,16.61c-.07-.05-.96.61-1.09.7.66.53,1.39.99,2.19,1.28-.41-.63-.87-1.25-1.1-1.98ZM49.34,17.29c-.18-.06-.94-.73-1.09-.62-.26.7-.67,1.32-1.1,1.93.8-.29,1.57-.71,2.19-1.3h0Z"/>
  </g>
</svg>