<?xml version="1.0" encoding="UTF-8"?>
<svg id="Capa_1" data-name="Capa 1" xmlns="http://www.w3.org/2000/svg" viewBox="0 0 55 55">
  <defs>
    <style>
      .cls-1 {
        fill: #d9d9d9;
      }
    </style>
  </defs>
  <path class="cls-1" d="M34.49,10.1v18.79l-4.49,6.71c0,1.44.62,3.83-1.61,3.65v6.81c-.06,1.01-1.24,1.33-1.66.34v-7.15c-2.6.23-1.3-2.27-1.72-3.66l-4.49-6.81V10.1h-2.38c-.15,0-.7-.24-.83-.39l-4.4-4.8-9.07-.02c-.83-.02-1.54-.45-1.69-1.31S1.93.5,2.93.1C19.24-.08,35.6.04,51.92.04c1.18.27,1.09,2.65.94,3.55s-.86,1.28-1.69,1.31l-9.07.02-4.4,4.8c-.14.14-.69.39-.83.39h-2.38ZM51.23,1.68H3.78v1.55h47.44v-1.55ZM39.81,4.89H15.2l2.98,3.39.29.15h17.85s.5-.15.5-.15l2.98-3.39ZM32.83,10.1h-10.64v2.11h10.64v-2.11ZM24.85,13.87h-2.66v13.97h10.64v-13.97h-2.66v9.92c0,.15-.38.87-.51,1.04-1.1,1.5-3.57,1.36-4.48-.26-.06-.1-.33-.74-.33-.78v-9.92ZM28.5,13.87h-2v9.7c0,.31.73.7,1.04.69.28-.01.96-.4.96-.69v-9.7ZM32.05,29.5h-9.09l3.48,5.22c.22.16,2.03.17,2.18.03l3.43-5.25ZM28.39,36.48h-1.66v1.11h1.66v-1.11Z"/>
  <path class="cls-1" d="M3.2,48.7l20.26-.03c.76.03,1.82,1.6,2.35,1.75.28.08,3.22.06,3.46-.04.66-.27,1.49-1.62,2.27-1.72h20.17c.67.18,1,.54,1.12,1.22.13.74.15,3.71-.12,4.33-.21.49-.68.79-1.22.78H3.28c-.51-.1-.95-.51-1.08-1.02-.17-.66-.15-3.26-.05-4,.1-.67.39-1.07,1.05-1.28ZM51.23,50.34h-19.34c-.14,0-1.62,1.6-2.15,1.73s-3.94.13-4.44,0-1.96-1.72-2.16-1.72H3.78v2.99h47.44v-2.99Z"/>
</svg>