<?xml version="1.0" encoding="UTF-8"?>
<svg id="Capa_1" data-name="Capa 1" xmlns="http://www.w3.org/2000/svg" viewBox="0 0 55 55">
  <defs>
    <style>
      .cls-1 {
        fill: #d9d9d9;
      }
    </style>
  </defs>
  <path class="cls-1" d="M53.51,24.47c2.28,2.52.75,6.53-2.48,7.2-.46,2.68-1.43,5.21-2.74,7.58-.17.3-1.09,1.58-1.11,1.72-.02.13.33.54.41.78,1.28,3.89-1.82,6.99-5.71,5.71-.24-.08-.65-.43-.78-.41-.14.02-1.42.94-1.72,1.11-2.37,1.31-4.89,2.28-7.58,2.74-1.14,4.72-7.44,4.71-8.59,0-2.68-.46-5.21-1.43-7.58-2.74-.3-.17-1.58-1.09-1.72-1.11-.13-.02-.54.33-.78.41-3.9,1.29-6.99-1.82-5.71-5.71.08-.24.43-.65.41-.78-.02-.14-.94-1.42-1.11-1.72-1.31-2.37-2.28-4.9-2.74-7.58-4.72-1.16-4.71-7.43,0-8.59.46-2.68,1.42-5.21,2.74-7.58.17-.3,1.09-1.58,1.11-1.72s-.33-.54-.41-.78c-1.28-3.89,1.82-6.99,5.71-5.71.24.08.65.43.78.41.14-.02,1.42-.94,1.72-1.11,2.36-1.31,4.9-2.28,7.58-2.74,1.15-4.71,7.46-4.72,8.59,0,2.68.46,5.21,1.43,7.58,2.74.3.17,1.58,1.09,1.72,1.11.13.02.54-.33.78-.41,3.89-1.28,6.99,1.82,5.71,5.71-.08.24-.43.65-.41.78.02.14.94,1.42,1.11,1.72,1.31,2.37,2.28,4.9,2.74,7.58.84.24,1.88.73,2.48,1.39ZM26.86,2.59c-.18.04-.68.4-.81.54-1.44,1.5-.11,3.87,1.96,3.43,2.51-.54,1.82-4.65-1.15-3.97ZM24.36,7.56c-.28-.3-.78-1.42-1.08-1.42-.68-.02-2.81.72-3.54,1.01-.61.23-4.28,1.94-4.36,2.38.31,1.08.48,2.03.1,3.12l10.57,1.3c.34-1.27,1.25-2.05,2.32-2.71-.45-.44-1.11-2.07-1.5-2.36-.61-.45-1.63-.36-2.5-1.31ZM39.55,12.76c-.06-.56-.27-1.08-.25-1.66.01-.39.42-1.47.32-1.66-.21-.41-3.62-2.03-4.25-2.27-1.23-.48-2.55-.86-3.86-1.06-.4,1.1-1.18,1.82-2.16,2.41.35.39,1.11,2.14,1.38,2.36.13.1.66.14.91.25,1.35.6,2.07,1.38,2.69,2.71l5.21-1.09ZM11.02,9.23c-2.16.35-2.26,3.75-.03,4.03,3.45.42,3.03-4.51.03-4.03ZM43.2,9.23c-.67.11-1.45.83-1.56,1.51-.51,3.25,3.83,3.29,4.03.71.11-1.37-1.12-2.45-2.48-2.23ZM29.69,13.16c-.44.09-1.1.61-1.32,1.01-1.06,1.97,1.24,3.94,3.01,2.64s.46-4.11-1.69-3.66ZM26.01,16.23l-10.41-1.38,3.59,7.71c1.14.3,2.06.74,2.78,1.71.42.58.55,1.23.97,1.74l11.34,2.36-4.78-8.88c-1.25-.28-2.41-.99-3.06-2.13-.15-.27-.38-1.08-.42-1.12ZM39.67,15.1c-1.79.16-3.51.73-5.28,1.04-.35,1.03-.86,1.9-1.73,2.57-.18.14-.7.29-.72.32-.27.36,3.89,6.95,4.17,7.97l3.56-11.91ZM13.25,15.23c-.64.08-1.24.37-1.89.37-.43,0-1.61-.41-1.78-.32-.41.21-2.03,3.62-2.27,4.25-.48,1.23-.86,2.55-1.06,3.86.73.29,1.44.79,1.92,1.42.34.45.42.92.75,1.34l5.36-.35c.46-1.23,1.23-2.42,2.54-2.83l-3.57-7.72ZM42.13,39.41c.47-.02.94-.25,1.41-.26.55,0,1.75.51,2.03.2.39-.42,1.12-1.85,1.39-2.42.61-1.25,1.32-3.05,1.62-4.4.34-1.56.06-.96-.86-1.72-2.06-1.7-2.39-4.86-.3-6.68.99-.86,1.53-.23,1.16-1.92-.51-2.36-1.79-5.04-3.21-6.97-1.15.36-2.23.51-3.36-.03l-4.04,13.72c-.01.24,1.05.75,1.32.97.69.56.99,1.18,1.33,1.98l1.5,7.53ZM18.15,24.83c-3.15.5-1.33,5.52,1.42,3.76,1.89-1.21.82-4.12-1.42-3.76ZM4.52,25.32c-2.69.26-2.25,4.33.32,4.14,2.73-.2,2.4-4.41-.32-4.14ZM50.08,25.31c-3.03.37-1.9,5.11,1.01,3.97,2.18-.86,1.3-4.25-1.01-3.97ZM14.36,28l-5.43.48c-.47,1.44-1.43,2.24-2.66,3.03-.11.39.81,3.16,1.03,3.72.24.62,1.87,4.05,2.27,4.25.17.09,1.35-.32,1.78-.32.66,0,1.26.29,1.9.38l3.68-8.66c-1.26-.54-2.22-1.54-2.59-2.88ZM33.16,30.45l-9.82-2.09,2.58,9.09,7.24-1.47c-1.28-1.75-1.3-3.77,0-5.52ZM23.7,37.93l-2.27-7.98c-.6.66-1.41.91-2.21,1.23l-3.63,8.47,8.1-1.72ZM35.95,31.21c-1.96.4-1.97,3.75.23,4.01,3.27.39,3.08-4.7-.23-4.01ZM39.3,36.59c-.58.25-1.08.63-1.71.8-.86.23-1.93.29-2.83.48-2.68.58-5.37,1.18-8.05,1.78l-.03.53,1.68,5.69c1.11.39,1.83.8,2.59,1.71s.16,1.2,1.72.86c1.7-.37,4.01-1.35,5.53-2.21.3-.17,1.44-.8,1.45-1.08,0-.31-.29-.89-.33-1.27-.1-1.05.32-2.16.83-3.05l-.85-4.24ZM24.43,40.16l-8.96,1.83c.38,1.19.18,2.14-.07,3.31,2.41,1.64,5.26,2.91,8.16,3.31.34-1.19,1.39-2.04,2.48-2.52l-1.62-5.93ZM10.77,41.53c-1.17.24-1.74,1.73-1.26,2.8,1,2.23,4.55,1.24,3.81-1.6-.28-1.08-1.58-1.4-2.55-1.2ZM42.95,41.53c-1.33.27-1.69,2.13-1,3.16,1.29,1.94,4.45.37,3.58-1.99-.39-1.06-1.55-1.38-2.58-1.17ZM27.11,48.16c-2.29.37-2.03,3.78-.03,4.03,3.38.41,3.17-4.54.03-4.03Z"/>
</svg>