<?xml version="1.0" encoding="UTF-8"?>
<svg id="Capa_1" data-name="Capa 1" xmlns="http://www.w3.org/2000/svg" viewBox="0 0 55 55">
  <defs>
    <style>
      .cls-1 {
        fill: #d9d9d9;
      }
    </style>
  </defs>
  <path class="cls-1" d="M11.91,45.98C6.08,40.61-1.17,31.45.16,22.98c.63-4.01,5.37-10.75,9.81-6.93.95.82,4.76,4.54,5.19,5.45.4.85.51,1.87.33,2.78-.66,3.33-5.1,3.28-2.36,7.38,1.91,2.86,4.93,5.99,7.58,8.19.82.68,3.33,2.71,4.25,2.81,2.01.22,2.56-1.37,3.87-2.42,1.58-1.26,3.81-1.23,5.37.05.91.75,4.87,4.67,5.31,5.53,1.53,2.99-.76,5.44-3.09,7.04-8.06,5.56-18.48-1.35-24.5-6.88Z"/>
  <path class="cls-1" d="M51.76,6.79C48.25,1.92,42.73-.41,36.76.06c-6.15.49-11.84,5.29-13.73,11.09-.16.44-.28.88-.38,1.33-.91,4.15-.28,8.64,2.08,12.47v.02l-2.43,6.11c-.14,1.21.42,1.59,1.56,1.56,2.57-.09,5.82-1.28,8.29-1.24.11,0,.23.02.37.05.49.1,1.17.39,1.77.6.05.02.11.04.17.05,2.82.74,5.92.74,9.06-.28,10.44-3.33,14.71-16.08,8.25-25.03ZM33.26,2.93c-.72,1.09-1.49,2.17-1.89,3.43l-1.89-1.19c.26-.47,3.61-2.38,3.78-2.24ZM27.79,6.72c.49-.51.44-.1.86.23.63.46,1.33.84,1.98,1.28-.67,2.33-1.19,4.73-1.16,7.16h-5.34c.18-3.07,1.52-6.45,3.66-8.67ZM24.13,17.28h5.34c-.04,1.82.28,3.64.67,5.43.09.4.56,1.45.32,1.75l-2.38,1.66c-1.23-1.24-2.21-2.75-2.87-4.36-.6-1.45-.89-2.91-1.07-4.48ZM29.47,27.44c.23-.16,1.77-1.3,1.89-1.21.39,1.26,1.17,2.33,1.89,3.43-1.38-.51-2.64-1.3-3.78-2.22ZM37.6,30.47c-2.35-.51-3.73-3.01-4.61-5.06,1.49-.47,3.01-.86,4.61-.89v5.96ZM37.6,22.62c-1.8-.02-3.56.42-5.24.98-.56-2.07-.96-4.17-1-6.32h6.24v5.34ZM37.6,15.25s-.14.14-.14.14h-6.1c.05-2.15.32-4.33.98-6.38,1.72.46,3.43,1,5.25.96v5.27ZM37.6,8.07c-1.58,0-3.12-.35-4.61-.81.89-2.14,2.26-4.41,4.61-5.15v5.96ZM52.86,15.39h-5.2c-.23,0-.11-1.42-.12-1.66-.09-1.1-.35-2.49-.6-3.57-.09-.42-.53-1.56-.49-1.86,0-.07.02-.12.09-.18l2.49-1.66c2.22,2.45,3.7,5.59,3.84,8.93ZM47.53,5.14l-1.77,1.21-2.03-3.42c1.38.51,2.66,1.26,3.8,2.21ZM39.49,2.11c.14-.14,1.1.44,1.3.56,1.51,1.02,2.57,2.84,3.22,4.5-1.47.49-2.98.84-4.52.89V2.11ZM39.49,9.97c1.77,0,3.49-.42,5.15-1,.58,2.08,1,4.24.98,6.41h-6.13v-5.41ZM39.49,17.28h6.13c.05,2.15-.42,4.24-.89,6.32-1.72-.49-3.43-1.02-5.24-.98v-5.34ZM39.49,30.47v-5.96c1.52.04,3.08.32,4.52.86-.86,2.07-2.21,4.5-4.52,5.1ZM43.73,29.66c.74-1.05,1.45-2.12,1.91-3.35.25-.18,1.58.98,1.89,1.09-1.07,1.02-2.42,1.73-3.8,2.26ZM48.93,26.11c-.84-.6-1.63-1.26-2.57-1.7.65-2.31,1.23-4.69,1.17-7.13h5.32c-.18,3.29-1.63,6.52-3.92,8.83Z"/>
</svg>