<?xml version="1.0" encoding="UTF-8"?>
<svg id="Capa_1" data-name="Capa 1" xmlns="http://www.w3.org/2000/svg" viewBox="0 0 55 55">
  <defs>
    <style>
      .cls-1 {
        fill: #d9d9d9;
      }
    </style>
  </defs>
  <path class="cls-1" d="M44.43,9.48c3.29,3.35,6.32,6.99,9.63,10.33.24.33.2.76.12,1.14l-25.53,31.77c-.74,1.04-1.59,1.04-2.33,0-7.77-10.53-17.25-20.35-24.89-30.91-.46-.63-.89-.88-.6-1.76l10.87-11.85.57-.26,30-.07c1.07,0,1.53.96,2.16,1.6ZM25.65,9.89h-11.53l5.51,8.85,6.02-8.85ZM40.85,9.89h-11.53l6.02,8.85,5.51-8.85ZM17.63,19.57l-5.43-9.02L2.94,20.64l22.21,27.67c.3.04.16-.37.13-.54-.89-4.51-2.58-9.06-3.46-13.6-.26-1.49,1.53-1.79,1.91-.39l3.68,14.53c.33.11.27-.29.33-.5,1.26-4.65,2.3-9.37,3.51-14.04.47-1.23,2.05-1.28,1.88.54-.38,4.09-2.78,9.26-3.43,13.45l.13.54,21.38-26.89h-14.78l-.25.42-2.16,8.87c-.49,1.02-1.94.63-1.86-.51.62-2.93,1.58-5.82,2.01-8.78h-13.36c-.02.24,0,.47.04.71.23,1.55,2.19,7.63,1.93,8.53-.23.81-1.55.84-1.82.05l-2.31-9.21-12.79-.08c-1.15-.22-.56-1.83-.17-1.83h11.94ZM51.04,19.57l-8.35-9.02-5.35,9.02h13.7ZM21.31,19.57h12.36l-6.26-8.85-6.1,8.85Z"/>
  <path class="cls-1" d="M45.14,40.49c1.74-.53,1.85,2.3,2.72,3.23.74.78,3.5,1.18,3.5,2.33s-2.85,1.68-3.5,2.33c-.72.72-.99,3.37-2.26,3.43-1.11.06-1.68-2.88-2.33-3.51s-3.41-1.07-3.41-2.26c0-1.19,2.69-1.56,3.4-2.27.58-.58,1.22-3.09,1.88-3.3ZM48.03,45.97c-1.35-.29-1.95-1.13-2.42-2.34-.53,1.27-1.09,1.97-2.42,2.42.16.33,1.27.59,1.59.91.4.4.35,1.24.91,1.51.14-.49.4-1.14.75-1.51.5-.53,1.17-.47,1.59-.99Z"/>
  <path class="cls-1" d="M46.32,7.93c-.65-.65-3.7-1.1-3.44-2.43.22-1.11,2.68-1.37,3.39-2.14.86-.93,1-3.66,2.68-3.33.68.13,1.35,2.75,2,3.35.54.5,3.08,1.33,3.23,1.78.62,1.78-2.54,1.99-3.39,2.91-.69.75-1.08,3.69-2.48,3.31-.91-.25-1.43-2.87-2-3.44ZM49.42,4.83c-.27-.27-.5-1.28-.8-1.63-.58,1.27-1.04,1.96-2.42,2.42.16.33,1.18.56,1.49.84.21.19.81,1.73,1.01,1.58.28-1.42,1.16-1.84,2.34-2.42-.35-.3-1.36-.53-1.63-.8Z"/>
  <path class="cls-1" d="M8.66,45.59c.57.57,3.19,1.09,3.44,2,.38,1.39-2.56,1.79-3.31,2.48-.92.85-1.13,4.01-2.91,3.39-.45-.16-1.28-2.7-1.78-3.23-.6-.65-3.21-1.32-3.35-2-.33-1.69,2.41-1.82,3.33-2.68.77-.71,1.02-3.17,2.14-3.39,1.33-.26,1.77,2.79,2.43,3.44ZM8.78,47.97c.15-.2-1.39-.8-1.58-1.01-.29-.31-.52-1.33-.84-1.49-.46,1.38-1.15,1.84-2.42,2.42,1.32.52,2.01.96,2.34,2.42.74-1.09,1-2.08,2.5-2.34Z"/>
</svg>